<?xml version="1.0" encoding="UTF-8"?>
<svg width="24px" height="16px" viewBox="0 0 24 16" version="1.1" xmlns="http://www.w3.org/2000/svg" xmlns:xlink="http://www.w3.org/1999/xlink">
    <!-- Generator: Sketch 52.6 (67491) - http://www.bohemiancoding.com/sketch -->
    <title>Combined Shape</title>
    <desc>Created with Sketch.</desc>
    <g id="Website" stroke="none" stroke-width="1" fill="none" fill-rule="evenodd">
        <g id="Page-Medium" transform="translate(-40.000000, -35.000000)" fill="#FFFFFF" fill-rule="nonzero">
            <g id="Header">
                <path d="M41,35 L63,35 C63.5522847,35 64,35.4477153 64,36 C64,36.5522847 63.5522847,37 63,37 L41,37 C40.4477153,37 40,36.5522847 40,36 C40,35.4477153 40.4477153,35 41,35 Z M41,42 L63,42 C63.5522847,42 64,42.4477153 64,43 C64,43.5522847 63.5522847,44 63,44 L41,44 C40.4477153,44 40,43.5522847 40,43 C40,42.4477153 40.4477153,42 41,42 Z M41,49 L63,49 C63.5522847,49 64,49.4477153 64,50 C64,50.5522847 63.5522847,51 63,51 L41,51 C40.4477153,51 40,50.5522847 40,50 C40,49.4477153 40.4477153,49 41,49 Z" id="Combined-Shape"></path>
            </g>
        </g>
    </g>
</svg>
