<svg width="40" height="60" viewBox="0 0 40 60" fill="none" xmlns="http://www.w3.org/2000/svg">
<g clip-path="url(#clip0)">
<path d="M20.0001 30C20.0001 27.3478 21.0536 24.8043 22.929 22.9289C24.8044 21.0536 27.3479 20 30.0001 20C32.6522 20 35.1958 21.0536 37.0711 22.9289C38.9465 24.8043 40.0001 27.3478 40.0001 30C40.0001 32.6522 38.9465 35.1957 37.0711 37.0711C35.1958 38.9464 32.6522 40 30.0001 40C27.3479 40 24.8044 38.9464 22.929 37.0711C21.0536 35.1957 20.0001 32.6522 20.0001 30Z" fill="#1ABCFE"/>
<path d="M6.10352e-05 50C6.10352e-05 47.3478 1.05363 44.8043 2.92899 42.9289C4.80436 41.0536 7.3479 40 10.0001 40H20.0001V50C20.0001 52.6522 18.9465 55.1957 17.0711 57.0711C15.1958 58.9464 12.6522 60 10.0001 60C7.3479 60 4.80436 58.9464 2.92899 57.0711C1.05363 55.1957 6.10352e-05 52.6522 6.10352e-05 50H6.10352e-05Z" fill="#0ACF83"/>
<path d="M20.0001 0V20H30.0001C32.6522 20 35.1958 18.9464 37.0711 17.0711C38.9465 15.1957 40.0001 12.6522 40.0001 10C40.0001 7.34784 38.9465 4.8043 37.0711 2.92893C35.1958 1.05357 32.6522 0 30.0001 0L20.0001 0Z" fill="#FF7262"/>
<path d="M6.10352e-05 10C6.10352e-05 12.6522 1.05363 15.1957 2.92899 17.0711C4.80436 18.9464 7.3479 20 10.0001 20H20.0001V0H10.0001C7.3479 0 4.80436 1.05357 2.92899 2.92893C1.05363 4.8043 6.10352e-05 7.34784 6.10352e-05 10H6.10352e-05Z" fill="#F24E1E"/>
<path d="M6.10352e-05 30C6.10352e-05 32.6522 1.05363 35.1957 2.92899 37.0711C4.80436 38.9464 7.3479 40 10.0001 40H20.0001V20H10.0001C7.3479 20 4.80436 21.0536 2.92899 22.9289C1.05363 24.8043 6.10352e-05 27.3478 6.10352e-05 30H6.10352e-05Z" fill="#A259FF"/>
</g>
<defs>
<clipPath id="clip0">
<rect width="40" height="60" fill="white"/>
</clipPath>
</defs>
</svg>
