<svg width="81" height="60" viewBox="0 0 81 60" fill="none" xmlns="http://www.w3.org/2000/svg">
<g clip-path="url(#clip0)">
<path d="M46.2027 16.525L43.4465 21.2975L34.0207 4.97142L5.08512 55.0833H24.6765C24.6765 57.7191 26.8132 59.8558 29.449 59.8558H5.08512C3.38021 59.8558 1.80496 58.9457 0.95265 57.4692C0.100337 55.9926 0.100424 54.1735 0.952879 52.697L29.8885 2.58514C30.741 1.10843 32.3166 0.19873 34.0217 0.19873C35.7269 0.19873 37.3025 1.10843 38.155 2.58514L46.2027 16.525Z" fill="#00C58E"/>
<path d="M67.0906 52.697L48.9588 21.2976L46.2027 16.525L43.4465 21.2976L25.3168 52.697C24.4643 54.1735 24.4642 55.9926 25.3165 57.4692C26.1689 58.9458 27.7441 59.8559 29.449 59.8559H62.9524C64.6576 59.8559 66.2335 58.9467 67.0863 57.47C67.9391 55.9933 67.9392 54.1738 67.0866 52.697H67.0906ZM29.449 55.0833L46.2027 26.0701L62.9524 55.0833H29.449L29.449 55.0833Z" fill="#2F495E"/>
<path d="M80.0541 57.4695C79.2017 58.9459 77.6266 59.8558 75.9218 59.8558H62.9524C65.5882 59.8558 67.7249 57.7191 67.7249 55.0833H75.9119L52.6814 14.8486L48.9588 21.2975L46.2027 16.525L48.5492 12.4623C49.4017 10.9856 50.9773 10.0759 52.6824 10.0759C54.3876 10.0759 55.9632 10.9856 56.8157 12.4623L80.0541 52.697C80.9066 54.1736 80.9066 55.9929 80.0541 57.4695Z" fill="#108775"/>
</g>
<defs>
<clipPath id="clip0">
<rect width="80.5369" height="60" fill="white" transform="translate(0.312561)"/>
</clipPath>
</defs>
</svg>
