<svg width="56" height="60" viewBox="0 0 56 60" fill="none" xmlns="http://www.w3.org/2000/svg">
<g clip-path="url(#clip0)">
<path d="M53.2023 46.2085L28.9238 59.9432V49.2483L44.0511 40.9246L53.2023 46.2085ZM54.8654 44.7045V15.9856L45.9848 21.1183V39.5798L54.8654 44.7045ZM2.51262 46.2085L26.7911 59.9432V49.2483L11.6559 40.9246L2.51262 46.2085ZM0.849487 44.7045V15.9856L9.73012 21.1183V39.5798L0.849487 44.7045ZM1.89193 14.1236L26.7911 0.0386963V10.3756L10.8362 19.1528L10.7089 19.2244L1.89193 14.1236ZM53.823 14.1236L28.9238 0.0386963V10.3756L44.8787 19.1448L45.006 19.2164L53.823 14.1236Z" fill="#8ED6FB"/>
<path d="M26.7911 46.8143L11.8627 38.6021V22.3448L26.7911 30.9628V46.8143ZM28.9237 46.8143L43.8521 38.61V22.3448L28.9237 30.9628V46.8143ZM12.8733 20.4668L27.8574 12.2307L42.8415 20.4668L27.8574 29.1167L12.8733 20.4668Z" fill="#1C78C0"/>
</g>
<defs>
<clipPath id="clip0">
<rect width="54.375" height="60" fill="white" transform="translate(0.849487)"/>
</clipPath>
</defs>
</svg>
